<?xml version="1.0" encoding="utf-8"?>
<!-- Generator: Adobe Illustrator 24.2.1, SVG Export Plug-In . SVG Version: 6.00 Build 0)  -->
<svg version="1.1" id="Layer_1" xmlns="http://www.w3.org/2000/svg" xmlns:xlink="http://www.w3.org/1999/xlink" x="0px" y="0px"
	 viewBox="0 0 384.2 74.7" style="enable-background:new 0 0 384.2 74.7;" xml:space="preserve">
<style type="text/css">
	.st0{fill:#ED1684;}
	.st1{fill:#B02A8A;}
	.st2{fill:#773895;}
	.st3{fill:#234291;}
</style>
<g>
	<g id="Final_x5F_Logo_x2B_Color_2_">
		<g id="Final_x5F_Blen_Expand_x5F_outline_2_">
			<g>
				<g>
					<path class="st0" d="M73.1,24.1c-0.1,0-0.3,0-0.4-0.1s-0.2-0.1-0.3-0.2c-0.2-0.2-0.3-0.5-0.3-0.8s0.1-0.6,0.3-0.8
						c0.4-0.4,1.1-0.4,1.5,0c0.2,0.2,0.3,0.5,0.3,0.8s-0.1,0.6-0.3,0.8c-0.1,0.1-0.2,0.2-0.4,0.2C73.4,24.1,73.3,24.1,73.1,24.1z"/>
					<path class="st0" d="M72,50.5c0-0.6,0.5-1.1,1.1-1.1l0,0c0.6,0,1.1,0.5,1.1,1.1l0,0c0,0.6-0.5,1.1-1.1,1.1l0,0
						C72.5,51.6,72,51.1,72,50.5z M72,47c0-0.6,0.5-1.1,1.1-1.1l0,0c0.6,0,1.1,0.5,1.1,1.1l0,0c0,0.6-0.5,1.1-1.1,1.1l0,0
						C72.5,48.1,72,47.6,72,47z M72,43.6c0-0.6,0.5-1.1,1.1-1.1l0,0c0.6,0,1.1,0.5,1.1,1.1l0,0c0,0.6-0.5,1.1-1.1,1.1l0,0
						C72.5,44.7,72,44.2,72,43.6z M72,40.2c0-0.6,0.5-1.1,1.1-1.1l0,0c0.6,0,1.1,0.5,1.1,1.1l0,0c0,0.6-0.5,1.1-1.1,1.1l0,0
						C72.5,41.3,72,40.8,72,40.2z M72,36.7c0-0.6,0.5-1.1,1.1-1.1l0,0c0.6,0,1.1,0.5,1.1,1.1l0,0c0,0.6-0.5,1.1-1.1,1.1l0,0
						C72.5,37.8,72,37.3,72,36.7z M72,33.3c0-0.6,0.5-1.1,1.1-1.1l0,0c0.6,0,1.1,0.5,1.1,1.1l0,0c0,0.6-0.5,1.1-1.1,1.1l0,0
						C72.5,34.4,72,33.9,72,33.3z M72,29.9c0-0.6,0.5-1.1,1.1-1.1l0,0c0.6,0,1.1,0.5,1.1,1.1l0,0c0,0.6-0.5,1.1-1.1,1.1l0,0
						C72.5,31,72,30.5,72,29.9z M72,26.4c0-0.6,0.5-1.1,1.1-1.1l0,0c0.6,0,1.1,0.5,1.1,1.1l0,0c0,0.6-0.5,1.1-1.1,1.1l0,0
						C72.5,27.5,72,27,72,26.4z"/>
					<path class="st0" d="M73.1,55c-0.1,0-0.3,0-0.4-0.1s-0.2-0.1-0.3-0.2c-0.2-0.2-0.3-0.5-0.3-0.8s0.1-0.6,0.3-0.8
						c0,0,0.1-0.1,0.2-0.1s0.1-0.1,0.2-0.1s0.1,0,0.2-0.1c0.1,0,0.3,0,0.4,0s0.1,0,0.2,0.1c0.1,0,0.1,0.1,0.2,0.1s0.1,0.1,0.2,0.1
						c0.2,0.2,0.3,0.5,0.3,0.8s-0.1,0.6-0.3,0.8C73.7,54.9,73.4,55,73.1,55z"/>
					<path class="st0" d="M99.5,53.9c0-0.6,0.5-1.1,1.1-1.1l0,0c0.6,0,1.1,0.5,1.1,1.1l0,0c0,0.6-0.5,1.1-1.1,1.1l0,0
						C100,55,99.5,54.5,99.5,53.9z M96,53.9c0-0.6,0.5-1.1,1.1-1.1l0,0c0.6,0,1.1,0.5,1.1,1.1l0,0c0,0.6-0.5,1.1-1.1,1.1l0,0
						C96.5,55,96,54.5,96,53.9z M92.6,53.9c0-0.6,0.5-1.1,1.1-1.1l0,0c0.6,0,1.1,0.5,1.1,1.1l0,0c0,0.6-0.5,1.1-1.1,1.1l0,0
						C93.1,55,92.6,54.5,92.6,53.9z M89.2,53.9c0-0.6,0.5-1.1,1.1-1.1l0,0c0.6,0,1.1,0.5,1.1,1.1l0,0c0,0.6-0.5,1.1-1.1,1.1l0,0
						C89.7,55,89.2,54.5,89.2,53.9z M85.7,53.9c0-0.6,0.5-1.1,1.1-1.1l0,0c0.6,0,1.1,0.5,1.1,1.1l0,0c0,0.6-0.5,1.1-1.1,1.1l0,0
						C86.2,55,85.7,54.5,85.7,53.9z M82.3,53.9c0-0.6,0.5-1.1,1.1-1.1l0,0c0.6,0,1.1,0.5,1.1,1.1l0,0c0,0.6-0.5,1.1-1.1,1.1l0,0
						C82.8,55,82.3,54.5,82.3,53.9z M78.9,53.9c0-0.6,0.5-1.1,1.1-1.1l0,0c0.6,0,1.1,0.5,1.1,1.1l0,0c0,0.6-0.5,1.1-1.1,1.1l0,0
						C79.4,55,78.9,54.5,78.9,53.9z M75.4,53.9c0-0.6,0.5-1.1,1.1-1.1l0,0c0.6,0,1.1,0.5,1.1,1.1l0,0c0,0.6-0.5,1.1-1.1,1.1l0,0
						C75.9,55,75.4,54.5,75.4,53.9z"/>
					<path class="st0" d="M104,55c-0.1,0-0.3,0-0.4-0.1c-0.1-0.1-0.2-0.1-0.4-0.2c-0.2-0.2-0.3-0.5-0.3-0.8s0.1-0.6,0.3-0.8
						c0.2-0.2,0.6-0.4,1-0.3c0.1,0,0.1,0,0.2,0.1c0.1,0,0.1,0.1,0.2,0.1c0.1,0,0.1,0.1,0.2,0.1c0,0,0.1,0.1,0.1,0.2s0.1,0.1,0.1,0.2
						s0.1,0.1,0.1,0.2s0,0.1,0,0.2c0,0.3-0.1,0.6-0.3,0.8c-0.1,0.1-0.2,0.2-0.4,0.2C104.3,55,104.2,55,104,55z"/>
				</g>
				<g>
					<path class="st1" d="M100.6,58.4c-0.3,0-0.6-0.1-0.8-0.3s-0.3-0.5-0.3-0.8s0.1-0.6,0.3-0.8c0.1,0,0.1-0.1,0.2-0.1
						c0.1,0,0.1-0.1,0.2-0.1c0.1,0,0.1,0,0.2-0.1c0.4-0.1,0.7,0,1,0.3c0.2,0.2,0.3,0.5,0.3,0.8s-0.1,0.6-0.3,0.8
						C101.2,58.3,100.9,58.4,100.6,58.4z"/>
					<path class="st1" d="M96.1,57.3c0-0.6,0.5-1.1,1.1-1.1l0,0c0.6,0,1.1,0.5,1.1,1.1l0,0c0,0.6-0.5,1.1-1.1,1.1l0,0
						C96.6,58.4,96.1,57.9,96.1,57.3z M92.6,57.3c0-0.6,0.5-1.1,1.1-1.1l0,0c0.6,0,1.1,0.5,1.1,1.1l0,0c0,0.6-0.5,1.1-1.1,1.1l0,0
						C93.1,58.4,92.6,57.9,92.6,57.3z M89.2,57.3c0-0.6,0.5-1.1,1.1-1.1l0,0c0.6,0,1.1,0.5,1.1,1.1l0,0c0,0.6-0.5,1.1-1.1,1.1l0,0
						C89.7,58.4,89.2,57.9,89.2,57.3z M85.8,57.3c0-0.6,0.5-1.1,1.1-1.1l0,0c0.6,0,1.1,0.5,1.1,1.1l0,0c0,0.6-0.5,1.1-1.1,1.1l0,0
						C86.3,58.4,85.8,57.9,85.8,57.3z M82.3,57.3c0-0.6,0.5-1.1,1.1-1.1l0,0c0.6,0,1.1,0.5,1.1,1.1l0,0c0,0.6-0.5,1.1-1.1,1.1l0,0
						C82.8,58.4,82.3,57.9,82.3,57.3z M78.9,57.3c0-0.6,0.5-1.1,1.1-1.1l0,0c0.6,0,1.1,0.5,1.1,1.1l0,0c0,0.6-0.5,1.1-1.1,1.1l0,0
						C79.4,58.4,78.9,57.9,78.9,57.3z M75.5,57.3c0-0.6,0.5-1.1,1.1-1.1l0,0c0.6,0,1.1,0.5,1.1,1.1l0,0c0,0.6-0.5,1.1-1.1,1.1l0,0
						C76,58.4,75.5,57.9,75.5,57.3z M72,57.3c0-0.6,0.5-1.1,1.1-1.1l0,0c0.6,0,1.1,0.5,1.1,1.1l0,0c0,0.6-0.5,1.1-1.1,1.1l0,0
						C72.5,58.4,72,57.9,72,57.3z"/>
					<path class="st1" d="M69.7,58.4c-0.3,0-0.6-0.1-0.8-0.3c-0.2-0.2-0.3-0.5-0.3-0.8c0-0.1,0-0.2,0-0.2c0-0.1,0-0.1,0.1-0.2
						c0-0.1,0.1-0.1,0.1-0.2s0.1-0.1,0.1-0.2c0.1,0,0.1-0.1,0.2-0.1s0.1-0.1,0.2-0.1s0.1,0,0.2-0.1c0.1,0,0.3,0,0.4,0s0.1,0,0.2,0.1
						c0.1,0,0.1,0.1,0.2,0.1s0.1,0.1,0.2,0.1s0.1,0.1,0.1,0.2s0.1,0.1,0.1,0.2s0,0.1,0.1,0.2c0,0.1,0,0.2,0,0.2
						c0,0.3-0.1,0.6-0.3,0.8C70.3,58.3,70,58.4,69.7,58.4z"/>
					<path class="st1" d="M68.6,53.9c0-0.6,0.5-1.1,1.1-1.1l0,0c0.6,0,1.1,0.5,1.1,1.1l0,0c0,0.6-0.5,1.1-1.1,1.1l0,0
						C69.1,55,68.6,54.5,68.6,53.9z M68.6,50.4c0-0.6,0.5-1.1,1.1-1.1l0,0c0.6,0,1.1,0.5,1.1,1.1l0,0c0,0.6-0.5,1.1-1.1,1.1l0,0
						C69.1,51.5,68.6,51,68.6,50.4z M68.6,47c0-0.6,0.5-1.1,1.1-1.1l0,0c0.6,0,1.1,0.5,1.1,1.1l0,0c0,0.6-0.5,1.1-1.1,1.1l0,0
						C69.1,48.1,68.6,47.6,68.6,47z M68.6,43.6c0-0.6,0.5-1.1,1.1-1.1l0,0c0.6,0,1.1,0.5,1.1,1.1l0,0c0,0.6-0.5,1.1-1.1,1.1l0,0
						C69.1,44.7,68.6,44.2,68.6,43.6z M68.6,40.1c0-0.6,0.5-1.1,1.1-1.1l0,0c0.6,0,1.1,0.5,1.1,1.1l0,0c0,0.6-0.5,1.1-1.1,1.1l0,0
						C69.1,41.2,68.6,40.7,68.6,40.1z M68.6,36.7c0-0.6,0.5-1.1,1.1-1.1l0,0c0.6,0,1.1,0.5,1.1,1.1l0,0c0,0.6-0.5,1.1-1.1,1.1l0,0
						C69.1,37.8,68.6,37.3,68.6,36.7z M68.6,33.3c0-0.6,0.5-1.1,1.1-1.1l0,0c0.6,0,1.1,0.5,1.1,1.1l0,0c0,0.6-0.5,1.1-1.1,1.1l0,0
						C69.1,34.4,68.6,33.9,68.6,33.3z M68.6,29.8c0-0.6,0.5-1.1,1.1-1.1l0,0c0.6,0,1.1,0.5,1.1,1.1l0,0c0,0.6-0.5,1.1-1.1,1.1l0,0
						C69.1,30.9,68.6,30.4,68.6,29.8z"/>
					<path class="st1" d="M69.7,27.5c-0.3,0-0.6-0.1-0.8-0.3c-0.1-0.1-0.2-0.2-0.2-0.4c-0.1-0.1-0.1-0.3-0.1-0.4
						c0-0.3,0.1-0.6,0.3-0.8c0.4-0.4,1.2-0.4,1.6,0c0.2,0.2,0.3,0.5,0.3,0.8c0,0.1,0,0.3-0.1,0.4s-0.1,0.3-0.2,0.4s-0.2,0.2-0.4,0.2
						C70,27.5,69.8,27.5,69.7,27.5z"/>
				</g>
				<g>
					<path class="st2" d="M97.2,61.8c-0.3,0-0.6-0.1-0.8-0.3c-0.2-0.2-0.3-0.5-0.3-0.8c0-0.2,0-0.3,0.1-0.4c0-0.1,0.1-0.1,0.1-0.2
						s0.1-0.1,0.1-0.2c0.3-0.3,0.6-0.4,1-0.3c0.1,0,0.1,0,0.2,0.1c0.1,0,0.1,0.1,0.2,0.1c0.1,0,0.1,0.1,0.2,0.1
						c0.1,0.1,0.2,0.2,0.2,0.4c0.1,0.1,0.1,0.3,0.1,0.4c0,0.3-0.1,0.6-0.3,0.8c-0.1,0.1-0.2,0.2-0.4,0.2
						C97.5,61.7,97.3,61.8,97.2,61.8z"/>
					<path class="st2" d="M92.7,60.7c0-0.6,0.5-1.1,1.1-1.1l0,0c0.6,0,1.1,0.5,1.1,1.1l0,0c0,0.6-0.5,1.1-1.1,1.1l0,0
						C93.2,61.8,92.7,61.3,92.7,60.7z M89.2,60.7c0-0.6,0.5-1.1,1.1-1.1l0,0c0.6,0,1.1,0.5,1.1,1.1l0,0c0,0.6-0.5,1.1-1.1,1.1l0,0
						C89.7,61.8,89.2,61.3,89.2,60.7z M85.8,60.7c0-0.6,0.5-1.1,1.1-1.1l0,0c0.6,0,1.1,0.5,1.1,1.1l0,0c0,0.6-0.5,1.1-1.1,1.1l0,0
						C86.3,61.8,85.8,61.3,85.8,60.7z M82.4,60.7c0-0.6,0.5-1.1,1.1-1.1l0,0c0.6,0,1.1,0.5,1.1,1.1l0,0c0,0.6-0.5,1.1-1.1,1.1l0,0
						C82.9,61.8,82.4,61.3,82.4,60.7z M78.9,60.7c0-0.6,0.5-1.1,1.1-1.1l0,0c0.6,0,1.1,0.5,1.1,1.1l0,0c0,0.6-0.5,1.1-1.1,1.1l0,0
						C79.4,61.8,78.9,61.3,78.9,60.7z M75.5,60.7c0-0.6,0.5-1.1,1.1-1.1l0,0c0.6,0,1.1,0.5,1.1,1.1l0,0c0,0.6-0.5,1.1-1.1,1.1l0,0
						C76,61.8,75.5,61.3,75.5,60.7z M72.1,60.7c0-0.6,0.5-1.1,1.1-1.1l0,0c0.6,0,1.1,0.5,1.1,1.1l0,0c0,0.6-0.5,1.1-1.1,1.1l0,0
						C72.5,61.8,72.1,61.3,72.1,60.7z M68.6,60.7c0-0.6,0.5-1.1,1.1-1.1l0,0c0.6,0,1.1,0.5,1.1,1.1l0,0c0,0.6-0.5,1.1-1.1,1.1l0,0
						C69.1,61.8,68.6,61.3,68.6,60.7z"/>
					<path class="st2" d="M66.3,61.8c-0.3,0-0.6-0.1-0.8-0.3s-0.3-0.5-0.3-0.8c0-0.1,0-0.1,0-0.2s0-0.1,0.1-0.2
						c0-0.1,0.1-0.1,0.1-0.2s0.1-0.1,0.1-0.2s0.1-0.1,0.2-0.1s0.1-0.1,0.2-0.1s0.1,0,0.2-0.1c0.4-0.1,0.7,0.1,1,0.3
						c0.2,0.2,0.3,0.5,0.3,0.8s-0.1,0.6-0.3,0.8c-0.1,0.1-0.2,0.2-0.4,0.2C66.6,61.8,66.4,61.8,66.3,61.8z"/>
					<path class="st2" d="M65.2,57.3c0-0.6,0.5-1.1,1.1-1.1l0,0c0.6,0,1.1,0.5,1.1,1.1l0,0c0,0.6-0.5,1.1-1.1,1.1l0,0
						C65.7,58.4,65.2,57.9,65.2,57.3z M65.2,53.8c0-0.6,0.5-1.1,1.1-1.1l0,0c0.6,0,1.1,0.5,1.1,1.1l0,0c0,0.6-0.5,1.1-1.1,1.1l0,0
						C65.7,55,65.2,54.5,65.2,53.8z M65.2,50.4c0-0.6,0.5-1.1,1.1-1.1l0,0c0.6,0,1.1,0.5,1.1,1.1l0,0c0,0.6-0.5,1.1-1.1,1.1l0,0
						C65.7,51.5,65.2,51,65.2,50.4z M65.2,47c0-0.6,0.5-1.1,1.1-1.1l0,0c0.6,0,1.1,0.5,1.1,1.1l0,0c0,0.6-0.5,1.1-1.1,1.1l0,0
						C65.7,48.1,65.2,47.6,65.2,47z M65.2,43.6c0-0.6,0.5-1.1,1.1-1.1l0,0c0.6,0,1.1,0.5,1.1,1.1l0,0c0,0.6-0.5,1.1-1.1,1.1l0,0
						C65.7,44.7,65.2,44.2,65.2,43.6z M65.2,40.1c0-0.6,0.5-1.1,1.1-1.1l0,0c0.6,0,1.1,0.5,1.1,1.1l0,0c0,0.6-0.5,1.1-1.1,1.1l0,0
						C65.7,41.2,65.2,40.7,65.2,40.1z M65.2,36.7c0-0.6,0.5-1.1,1.1-1.1l0,0c0.6,0,1.1,0.5,1.1,1.1l0,0c0,0.6-0.5,1.1-1.1,1.1l0,0
						C65.7,37.8,65.2,37.3,65.2,36.7z M65.2,33.3c0-0.6,0.5-1.1,1.1-1.1l0,0c0.6,0,1.1,0.5,1.1,1.1l0,0c0,0.6-0.5,1.1-1.1,1.1l0,0
						C65.7,34.4,65.2,33.9,65.2,33.3z"/>
					<path class="st2" d="M66.3,30.9c-0.3,0-0.6-0.1-0.8-0.3c-0.2-0.2-0.3-0.5-0.3-0.8c0-0.1,0-0.1,0-0.2s0-0.1,0.1-0.2
						c0-0.1,0.1-0.1,0.1-0.2s0.1-0.1,0.1-0.2c0.4-0.4,1.1-0.4,1.5,0c0.1,0,0.1,0.1,0.1,0.2c0,0,0.1,0.1,0.1,0.2s0,0.1,0.1,0.2
						c0,0.1,0,0.1,0,0.2s0,0.3-0.1,0.4s-0.1,0.2-0.2,0.4C66.9,30.8,66.6,30.9,66.3,30.9z"/>
				</g>
				<g>
					<path class="st3" d="M93.8,65.2c-0.3,0-0.6-0.1-0.8-0.3s-0.3-0.5-0.3-0.8s0.1-0.6,0.3-0.8c0.1,0,0.1-0.1,0.2-0.1
						c0.1,0,0.1-0.1,0.2-0.1c0.1,0,0.1,0,0.2-0.1c0.1,0,0.3,0,0.4,0c0.1,0,0.1,0,0.2,0.1c0.1,0,0.1,0.1,0.2,0.1
						c0.1,0,0.1,0.1,0.2,0.1c0.2,0.2,0.3,0.5,0.3,0.8s-0.1,0.6-0.3,0.8C94.3,65.1,94.1,65.2,93.8,65.2z"/>
					<path class="st3" d="M89.1,64.1c0-0.6,0.5-1.1,1.1-1.1l0,0c0.6,0,1.1,0.5,1.1,1.1l0,0c0,0.6-0.5,1.1-1.1,1.1l0,0
						C89.6,65.2,89.1,64.7,89.1,64.1z M85.7,64.1c0-0.6,0.5-1.1,1.1-1.1l0,0c0.6,0,1.1,0.5,1.1,1.1l0,0c0,0.6-0.5,1.1-1.1,1.1l0,0
						C86.2,65.2,85.7,64.7,85.7,64.1z M82.3,64.1c0-0.6,0.5-1.1,1.1-1.1l0,0c0.6,0,1.1,0.5,1.1,1.1l0,0c0,0.6-0.5,1.1-1.1,1.1l0,0
						C82.8,65.2,82.3,64.7,82.3,64.1z M78.9,64.1c0-0.6,0.5-1.1,1.1-1.1l0,0c0.6,0,1.1,0.5,1.1,1.1l0,0c0,0.6-0.5,1.1-1.1,1.1l0,0
						C79.4,65.2,78.9,64.7,78.9,64.1z M75.5,64.1c0-0.6,0.5-1.1,1.1-1.1l0,0c0.6,0,1.1,0.5,1.1,1.1l0,0c0,0.6-0.5,1.1-1.1,1.1l0,0
						C75.9,65.2,75.5,64.7,75.5,64.1z M72,64.1c0-0.6,0.5-1.1,1.1-1.1l0,0c0.6,0,1.1,0.5,1.1,1.1l0,0c0,0.6-0.5,1.1-1.1,1.1l0,0
						C72.5,65.2,72,64.7,72,64.1z M68.6,64.1c0-0.6,0.5-1.1,1.1-1.1l0,0c0.6,0,1.1,0.5,1.1,1.1l0,0c0,0.6-0.5,1.1-1.1,1.1l0,0
						C69.1,65.2,68.6,64.7,68.6,64.1z M65.2,64.1c0-0.6,0.5-1.1,1.1-1.1l0,0c0.6,0,1.1,0.5,1.1,1.1l0,0c0,0.6-0.5,1.1-1.1,1.1l0,0
						C65.7,65.2,65.2,64.7,65.2,64.1z"/>
					<path class="st3" d="M62.9,65.2c-0.3,0-0.6-0.1-0.8-0.3c-0.2-0.2-0.3-0.5-0.3-0.8s0.1-0.6,0.3-0.8c0.4-0.4,1.1-0.4,1.6,0
						c0.2,0.2,0.3,0.5,0.3,0.8s-0.1,0.6-0.3,0.8c-0.1,0.1-0.2,0.2-0.4,0.2C63.2,65.2,63,65.2,62.9,65.2z"/>
					<path class="st3" d="M61.8,60.7c0-0.6,0.5-1.1,1.1-1.1l0,0c0.6,0,1.1,0.5,1.1,1.1l0,0c0,0.6-0.5,1.1-1.1,1.1l0,0
						C62.3,61.8,61.8,61.3,61.8,60.7z M61.8,57.3c0-0.6,0.5-1.1,1.1-1.1l0,0c0.6,0,1.1,0.5,1.1,1.1l0,0c0,0.6-0.5,1.1-1.1,1.1l0,0
						C62.3,58.4,61.8,57.9,61.8,57.3z M61.8,53.8c0-0.6,0.5-1.1,1.1-1.1l0,0c0.6,0,1.1,0.5,1.1,1.1l0,0c0,0.6-0.5,1.1-1.1,1.1l0,0
						C62.3,54.9,61.8,54.4,61.8,53.8z M61.8,50.4c0-0.6,0.5-1.1,1.1-1.1l0,0c0.6,0,1.1,0.5,1.1,1.1l0,0c0,0.6-0.5,1.1-1.1,1.1l0,0
						C62.3,51.5,61.8,51,61.8,50.4z M61.8,47c0-0.6,0.5-1.1,1.1-1.1l0,0c0.6,0,1.1,0.5,1.1,1.1l0,0c0,0.6-0.5,1.1-1.1,1.1l0,0
						C62.3,48.1,61.8,47.6,61.8,47z M61.8,43.5c0-0.6,0.5-1.1,1.1-1.1l0,0c0.6,0,1.1,0.5,1.1,1.1l0,0c0,0.6-0.5,1.1-1.1,1.1l0,0
						C62.3,44.6,61.8,44.1,61.8,43.5z M61.8,40.1c0-0.6,0.5-1.1,1.1-1.1l0,0c0.6,0,1.1,0.5,1.1,1.1l0,0c0,0.6-0.5,1.1-1.1,1.1l0,0
						C62.3,41.2,61.8,40.7,61.8,40.1z M61.8,36.7c0-0.6,0.5-1.1,1.1-1.1l0,0c0.6,0,1.1,0.5,1.1,1.1l0,0c0,0.6-0.5,1.1-1.1,1.1l0,0
						C62.3,37.8,61.8,37.3,61.8,36.7z"/>
					<path class="st3" d="M62.9,34.3c-0.3,0-0.6-0.1-0.8-0.3c-0.2-0.2-0.3-0.5-0.3-0.8s0.1-0.6,0.3-0.8c0.4-0.4,1.1-0.4,1.6,0
						c0.2,0.2,0.3,0.5,0.3,0.8c0,0.1,0,0.3-0.1,0.4s-0.1,0.2-0.2,0.4C63.4,34.2,63.2,34.3,62.9,34.3z"/>
				</g>
			</g>
			<polygon class="st3" points="118.4,8.5 118.4,41.1 106.4,53.1 106.4,20.5 73.9,20.5 85.8,8.6 85.9,8.5 			"/>
		</g>
		<path class="st3" d="M55.5,48l1.1,12.4c-5.8,3.9-12,4.9-20.4,4.9c-16.9,0-27.4-12.8-27.4-28.5S19.3,8.3,36.2,8.3
			c8.1,0,15.5,0.8,20.4,4.8l-1.1,12.4h-1.3c-4.4-10.6-9-15.8-18-15.8C27.4,9.7,23,15.2,23,36.8c0,21.7,4.7,27.1,13.2,27.1
			c9.5,0,15.9-7.3,18-15.9H55.5z"/>
		<path class="st3" d="M145.4,19.2l13,32.5l-5.5,13.6h-1.4C131.8,17.7,131,16.4,131,16.4c-2.7-6.5-5.6-6.5-7.7-6.5V8.5h25.6v1.4
			C142.3,9.8,145.4,19.2,145.4,19.2z M160.2,8.5v1.4c5.2,0,7.8,3.8,8.2,8.5c0.2,2.4-0.5,5.6-1.1,7.2h1.5c1.9-4,2.4-5.1,3.7-7.6
			c3.2-6.4,7.5-8,10.4-8V8.6L160.2,8.5L160.2,8.5z"/>
		<path class="st3" d="M243,63.9v1.4h-7.4c-14.4-0.1-12.3-0.1-17.9-17.6c-2.7-8.3-10.1-8.3-10.1-8.3h-3.8v16.1c0,5.5,2.6,8.4,6,8.4
			v1.4h-23.5v-1.4c3.5,0,5.8-2.9,5.8-8.4V17c0-5-2.3-7.2-5.8-7.2V8.4h20c16,0,27.3,1.9,27.3,15.4c0,9.8-6.1,13.5-15.7,14.6
			c5.2-0.6,11.7,3,15.6,17.5C235.1,62.1,240.9,63.7,243,63.9z M220.5,23.9c0-14-6.4-14-14.2-14h-2.5V38h2.5
			C214.1,38,220.5,37.9,220.5,23.9z"/>
		<path class="st3" d="M273.3,8.5v1.4c-3.5,0-6.9,2.2-6.9,7.2v38.5c0,5.5,3.5,8.4,6.9,8.4v1.4h-25.4V64c3.5,0,6.9-2.9,6.9-8.4V17
			c0-5-3.3-7.2-6.9-7.2V8.4L273.3,8.5L273.3,8.5z"/>
		<path class="st3" d="M294.4,63.9h3.8c12.3,0,21.4-12.5,23.2-17.4h1.5l-2,18.8h-42.6l32-55.4h-3.8c-10.7,0-21.2,6.8-24,14.9h-1.6
			l1.5-16.3h41.9L294.4,63.9z"/>
		<path class="st3" d="M374.6,47.7v17.6h-45.4v-1.4c3.4,0,4.7-4.2,4.7-9.7V19.6c0-5-1.1-9.8-4.7-9.8V8.4h44.4v15.3h-1.4
			c-1.9-14-23.7-14-23.7-14h-2.9v26h2.9c0,0,12.3,0,13.1-8.4h1.4v18.1h-1.4c-0.8-8.4-13.1-8.4-13.1-8.4h-2.9v26.6h2.9
			c0,0,21.4,0,24.8-16.2h1.3V47.7z"/>
	</g>
</g>
</svg>
